<svg width="97" height="98" viewBox="0 0 97 98" fill="none" xmlns="http://www.w3.org/2000/svg">
<path d="M17.891 83.3031L11.0828 6.125H85.9183L79.101 83.2908L48.455 91.875L17.891 83.3031Z" fill="#1572B6"/>
<path d="M48.5 85.3153L73.2653 78.3788L79.0914 12.437H48.5V85.3153Z" fill="#33A9DC"/>
<path d="M48.5 40.3978H60.8978L61.7526 30.705H48.5V21.2388H48.5333H71.9922L71.7679 23.7776L69.4672 49.864H48.5V40.3978Z" fill="white"/>
<path d="M48.5581 64.9802L48.5156 64.9924L38.0821 62.1443L37.4152 54.5952H32.3439H28.0092L29.3218 69.4575L48.5126 74.8414L48.5581 74.8291V64.9802Z" fill="#EBEBEB"/>
<path d="M60.1002 49.4624L58.9726 62.1381L48.5239 64.9862V74.8352L67.7299 69.4575L67.8723 67.8588L69.5001 49.4624H60.1002Z" fill="white"/>
<path d="M48.5325 21.2388V27.1188V30.6805V30.705H25.9315H25.9012L25.7132 28.5765L25.2858 23.7776L25.0615 21.2388H48.5325Z" fill="#EBEBEB"/>
<path d="M48.5004 40.3975V46.2775V49.8391V49.8636H38.2275H38.1972L38.0092 47.7352L37.5849 42.9363L37.3605 40.3975H48.5004Z" fill="#EBEBEB"/>
</svg>
