<svg width="95" height="95" viewBox="0 0 95 95" fill="none" xmlns="http://www.w3.org/2000/svg">
<path d="M42.1369 54.4229C42.5741 54.435 43.0085 54.3501 43.4089 54.1744C43.8093 53.9986 44.1659 53.7364 44.4529 53.4065C45.0561 52.7289 45.3577 51.7123 45.3577 50.3569C45.3577 49.0175 45.064 48.0182 44.4767 47.3592C44.1714 47.0455 43.8062 46.7964 43.4027 46.6266C42.9993 46.4569 42.5658 46.37 42.1281 46.3711C41.6904 46.3722 41.2574 46.4613 40.8548 46.6331C40.4522 46.8049 40.0883 47.0558 39.7846 47.371C39.1891 48.039 38.8915 49.0449 38.8917 50.3888C38.8917 51.7123 39.1974 52.7155 39.8087 53.3983C40.0974 53.73 40.4558 53.9938 40.8583 54.1709C41.2608 54.348 41.6974 54.4341 42.1369 54.4229Z" fill="black"/>
<path d="M68.2812 62.3438C69.0683 62.3429 69.8229 62.0298 70.3795 61.4732C70.9361 60.9167 71.2491 60.1621 71.25 59.375V41.5625C71.2491 40.7754 70.9361 40.0208 70.3795 39.4643C69.8229 38.9077 69.0683 38.5946 68.2812 38.5938H17.8125C17.0254 38.5946 16.2708 38.9077 15.7143 39.4643C15.1577 40.0208 14.8446 40.7754 14.8438 41.5625V59.375C14.8446 60.1621 15.1577 60.9167 15.7143 61.4732C16.2708 62.0298 17.0254 62.3429 17.8125 62.3438H68.2812ZM49.6894 44.5531H53.2215L55.3423 52.5257L57.439 44.5531H60.9789V56.2426H58.7864V47.0406L56.4664 56.2411H54.1942L51.8822 47.0406V56.2411H49.6894V44.5531ZM36.9951 47.4711C37.2603 46.8768 37.6288 46.3342 38.0835 45.8687C38.5101 45.4186 39.0242 45.0605 39.5942 44.8162C40.3944 44.4945 41.2513 44.3372 42.1136 44.3539C43.8357 44.3539 45.2137 44.888 46.2476 45.9562C47.2814 47.0245 47.7984 48.5101 47.7984 50.4131C47.7984 52.3 47.2855 53.7763 46.2598 54.8421C45.2341 55.9079 43.8628 56.4408 42.1459 56.4408C40.4079 56.4408 39.026 55.9106 38 54.8503C36.9741 53.7899 36.4608 52.3294 36.4603 50.4688C36.4297 49.4433 36.6116 48.4227 36.9947 47.4711H36.9951ZM26.1591 45.9681C26.666 45.4316 27.2819 45.0099 27.9654 44.7313C28.6489 44.4528 29.3842 44.324 30.1217 44.3535C31.4049 44.2992 32.6575 44.7549 33.6059 45.6212C34.1922 46.217 34.6056 46.9609 34.8019 47.7735L32.4659 48.3301C32.3579 47.7625 32.0498 47.2524 31.5978 46.8926C31.1457 46.5327 30.5796 46.3469 30.0022 46.3689C29.6032 46.3561 29.2064 46.4334 28.8413 46.5949C28.4763 46.7564 28.1522 46.998 27.8933 47.3018C27.3537 47.9238 27.0839 48.9311 27.0839 50.3237C27.0839 51.8016 27.3496 52.854 27.881 53.4809C28.132 53.7853 28.4492 54.0284 28.8085 54.1914C29.1678 54.3544 29.5596 54.4332 29.9539 54.4216C30.5494 54.4333 31.1274 54.2198 31.5723 53.8238C32.0844 53.3132 32.4245 52.6555 32.5449 51.9424L34.8331 52.6678C34.5826 53.7838 33.9667 54.7841 33.083 55.5101C32.1799 56.1561 31.0872 56.4826 29.9777 56.4378C29.2634 56.4599 28.5527 56.3295 27.8928 56.0552C27.233 55.7809 26.6391 55.3691 26.151 54.8473C25.1517 53.7869 24.6521 52.3372 24.6521 50.4981C24.6514 48.5545 25.1532 47.0445 26.1577 45.9681H26.1591Z" fill="black"/>
<path d="M74.2188 2.96875H23.75C22.1758 2.97052 20.6666 3.59664 19.5535 4.70976C18.4404 5.82287 17.8143 7.33207 17.8125 8.90625V35.625H20.7812V8.90625C20.7821 8.11916 21.0952 7.36456 21.6518 6.808C22.2083 6.25145 22.9629 5.93838 23.75 5.9375H74.2188C75.0058 5.93838 75.7604 6.25145 76.317 6.808C76.8736 7.36456 77.1866 8.11916 77.1875 8.90625V70.8897C77.1867 71.0102 77.1786 71.1305 77.1634 71.25H63.8281C62.6475 71.2513 61.5155 71.7209 60.6807 72.5557C59.8459 73.3905 59.3763 74.5225 59.375 75.7031V89.0384C59.2555 89.0536 59.1352 89.0617 59.0147 89.0625H23.75C22.9629 89.0616 22.2083 88.7486 21.6518 88.192C21.0952 87.6354 20.7821 86.8808 20.7812 86.0938V65.3125H17.8125V86.0938C17.8143 87.6679 18.4404 89.1771 19.5535 90.2902C20.6666 91.4034 22.1758 92.0295 23.75 92.0312H59.0147C59.7947 92.0334 60.5674 91.8807 61.288 91.5822C62.0086 91.2836 62.6629 90.8451 63.2128 90.2919L78.4169 75.0879C78.9701 74.5379 79.4086 73.8836 79.7072 73.163C80.0057 72.4424 80.1584 71.6697 80.1562 70.8897V8.90625C80.1545 7.33207 79.5284 5.82287 78.4152 4.70976C77.3021 3.59664 75.7929 2.97052 74.2188 2.96875Z" fill="black"/>
</svg>
