<svg width="98" height="99" viewBox="0 0 98 99" fill="none" xmlns="http://www.w3.org/2000/svg">
<path d="M21.3257 89.9928L15.1678 20.2202H82.8322L76.6681 89.9819L48.9586 97.7419L21.3257 89.9928Z" fill="#E44D26"/>
<path d="M49 91.8103L71.3899 85.5393L76.6582 25.9258H49V91.8103Z" fill="#F16529"/>
<path d="M49 51.8031H37.7905L37.0172 43.0392H49V34.4819H27.7593L27.9614 36.7783L30.0439 60.3596H49V51.8031ZM49 74.0262L48.9625 74.0363L39.5292 71.4623L38.9259 64.6383H30.4221L31.6088 78.0744L48.961 82.9409L49 82.9293V74.0262Z" fill="#EBEBEB"/>
<path d="M21.4635 1.2583H25.7679V5.55552H29.7062V1.2583H34.0113V14.2691H29.7062V9.91229H25.7686V14.2691H21.4635V1.2583ZM39.6716 5.57331H35.8818V1.2583H47.7681V5.57331H43.9767V14.2691H39.6716V5.57331ZM49.6546 1.2583H54.1427L56.9043 5.83009L59.6628 1.2583H64.1532V14.2691H59.865V7.82014L56.9043 12.4461H56.8293L53.8663 7.82014V14.2691H49.6538V1.2583H49.6546ZM66.2962 1.2583H70.6021V9.96875H76.6559V14.2698H66.2962V1.2583Z" fill="black"/>
<path d="M48.9709 51.8031V60.3596H59.4018L58.4187 71.4577L48.9709 74.034V82.9362L66.3368 78.0744L66.4639 76.6281L68.4545 54.1002L68.6612 51.8031H66.3781H48.9709ZM48.9709 34.4819V43.0392H69.4322L69.6014 41.1157L69.9881 36.7783L70.191 34.4819H48.9709Z" fill="white"/>
</svg>
