<svg width="114" height="114" viewBox="0 0 114 114" fill="none" xmlns="http://www.w3.org/2000/svg">
<path d="M46.83 60.3994C46.83 60.3994 43.9051 62.1014 48.9149 62.6767C54.9836 63.3696 58.0857 63.2699 64.7725 62.0061C64.7725 62.0061 66.535 63.1078 68.9896 64.0625C53.995 70.4866 35.0532 63.6903 46.83 60.3994ZM44.9962 52.0142C44.9962 52.0142 41.7151 54.4447 46.7284 54.963C53.2122 55.6319 58.3306 55.6871 67.1941 53.9807C67.1941 53.9807 68.4169 55.224 70.3433 55.9017C52.2173 61.2045 32.0278 56.3194 44.9962 52.0142Z" fill="#0074BD"/>
<path d="M60.4423 37.7902C64.1393 42.0456 59.4733 45.8717 59.4733 45.8717C59.4733 45.8717 68.8542 41.0294 64.5463 34.9634C60.5215 29.3088 57.4373 26.5006 74.1392 16.8142C74.1401 16.8142 47.921 23.3603 60.4423 37.7902Z" fill="#EA2D2E"/>
<path d="M80.2738 66.6019C80.2738 66.6019 82.4398 68.3876 77.8887 69.7681C69.2354 72.3892 41.8683 73.1801 34.2668 69.8723C31.5361 68.6833 36.6599 67.0339 38.271 66.6874C39.9517 66.3232 40.9118 66.39 40.9118 66.39C37.8729 64.2498 21.269 70.5928 32.4784 72.4124C63.0482 77.3669 88.2022 70.1805 80.2738 66.6019ZM48.238 43.3263C48.238 43.3263 34.3184 46.6332 43.3093 47.8356C47.1069 48.3432 54.6719 48.2266 61.7239 47.6352C67.4853 47.1516 73.2673 46.1176 73.2673 46.1176C73.2673 46.1176 71.2375 46.9886 69.7671 47.9914C55.6293 51.7098 28.3237 49.9775 36.1852 46.1763C42.8319 42.9603 48.238 43.3263 48.238 43.3263ZM73.2094 57.2824C87.5796 49.8172 80.9347 42.6423 76.2972 43.6087C75.1634 43.8456 74.654 44.0504 74.654 44.0504C74.654 44.0504 75.077 43.3878 75.8812 43.1037C85.0565 39.8796 92.1111 52.6165 72.9226 57.661C72.9226 57.661 73.1426 57.4615 73.2094 57.2824Z" fill="#0074BD"/>
<path d="M64.5471 1.16943C64.5471 1.16943 72.5049 9.13073 56.9982 21.3706C44.5633 31.1915 54.1625 36.79 56.9929 43.1891C49.7343 36.6395 44.4101 30.8736 47.9815 25.5084C53.2264 17.6335 67.757 13.8136 64.5471 1.16943Z" fill="#EA2D2E"/>
<path d="M49.6515 77.5193C63.4419 78.401 84.6254 77.0285 85.1268 70.5029C85.1268 70.5029 84.1632 72.9762 73.7277 74.9391C61.9554 77.155 47.4338 76.8976 38.8232 75.4762C38.8232 75.4762 40.5867 76.9368 49.6515 77.5193Z" fill="#0074BD"/>
<path d="M84.49 89.2236H84.0697V88.9885H85.2008V89.2236H84.7822V90.3966H84.4891L84.49 89.2236ZM86.7478 89.2824H86.7424L86.3256 90.3966H86.1332L85.7191 89.2824H85.7146V90.3966H85.4368V88.9885H85.8438L86.2276 89.9851L86.6124 88.9885H87.0167V90.3966H86.7478V89.2824ZM47.391 102.455C46.0907 103.582 44.7156 104.216 43.4803 104.216C41.7222 104.216 40.7684 103.16 40.7684 101.469C40.7684 99.6386 41.789 98.2982 45.8788 98.2982H47.3902V102.455H47.391ZM50.9812 106.505V93.968C50.9812 90.7626 49.1527 88.6483 44.7495 88.6483C42.1791 88.6483 39.9258 89.2842 38.0938 90.0929L38.6211 92.3132C40.0639 91.7833 41.9297 91.2916 43.7609 91.2916C46.2991 91.2916 47.3902 92.3132 47.3902 94.4275V96.012H46.1219C39.9579 96.012 37.1765 98.4033 37.1765 102C37.1765 105.098 39.0094 106.859 42.4605 106.859C44.6782 106.859 46.3357 105.943 47.8827 104.603L48.1641 106.506H50.9812V106.505ZM62.9618 106.505H58.4847L53.0955 88.9698H57.0062L60.3514 99.7455L61.0951 102.983C62.7837 98.3 63.9807 93.5458 64.5792 88.9707H68.3831C67.3651 94.7428 65.5304 101.081 62.9618 106.505ZM80.1402 102.455C78.8355 103.582 77.4594 104.216 76.2286 104.216C74.4687 104.216 73.5157 103.16 73.5157 101.469C73.5157 99.6386 74.5391 98.2982 78.6244 98.2982H80.1393V102.455H80.1402ZM83.7321 106.505V93.968C83.7321 90.7626 81.8983 88.6483 77.4986 88.6483C74.9256 88.6483 72.6732 89.2842 70.8412 90.0929L71.3693 92.3132C72.8122 91.7833 74.6807 91.2916 76.5118 91.2916C79.0465 91.2916 80.1402 92.3132 80.1402 94.4275V96.012H78.872C72.7062 96.012 69.9256 98.4033 69.9256 102C69.9256 105.098 71.7568 106.859 75.207 106.859C77.4256 106.859 79.0804 105.943 80.6318 104.603L80.9151 106.506H83.7321V106.505ZM33.2399 109.485C32.2184 110.981 30.5636 112.164 28.7538 112.831L26.9824 110.743C28.3602 110.036 29.5403 108.895 30.0898 107.831C30.5636 106.885 30.7604 105.667 30.7604 102.754V82.731H34.5758V102.479C34.5758 106.375 34.2659 107.951 33.2399 109.485Z" fill="#EA2D2E"/>
</svg>
