<svg width="143" height="144" viewBox="0 0 143 144" fill="none" xmlns="http://www.w3.org/2000/svg">
<path d="M2.23549 101.765H6.8249V83.5145L13.9302 99.4254C14.7681 101.351 15.9155 102.032 18.1666 102.032C20.4177 102.032 21.5215 101.351 22.3594 99.4254L29.4647 83.5145V101.765H34.0541V83.5449C34.0541 81.7674 33.348 80.9068 31.8912 80.4635C28.4045 79.3678 26.0651 80.3161 25.006 82.6865L18.0336 98.3893L11.2825 82.6854C10.267 80.3161 7.88399 79.3678 4.39725 80.4624C2.94044 80.9068 2.23438 81.7663 2.23438 83.5438V101.765H2.23549ZM37.8715 86.9086H42.4598V96.9639C42.4174 97.5095 42.6341 98.792 45.1478 98.8325C46.4303 98.8528 55.0483 98.8325 55.1287 98.8325V86.8591H59.7282C59.7494 86.8591 59.7237 103.187 59.7237 103.255C59.7483 107.282 54.7623 108.157 52.4631 108.224H37.971V105.115C37.9955 105.115 52.4531 105.118 52.4888 105.113C55.4438 104.8 55.0941 103.321 55.093 102.824V101.611H45.3388C40.8008 101.57 37.9095 99.575 37.8727 97.28C37.8704 97.0696 37.9721 87.0099 37.8715 86.9086Z" fill="#00618A"/>
<path d="M63.2664 101.765H76.4626C78.0076 101.765 79.5091 101.44 80.7001 100.878C82.6853 99.9596 83.6561 98.7153 83.6561 97.0841V93.7068C83.6561 92.3737 82.5535 91.1283 80.3906 90.3003C79.2433 89.8548 77.83 89.6197 76.4615 89.6197H70.9001C69.0467 89.6197 68.1641 89.0572 67.944 87.813C67.9005 87.6645 67.9004 87.5463 67.9004 87.3978V85.2941C67.9004 85.176 67.9005 85.0567 67.944 84.9093C68.1641 83.961 68.6501 83.6943 70.2834 83.5458L70.7247 83.5166H83.8327V80.4363H70.9459C69.0925 80.4363 68.1217 80.5545 67.2391 80.8211C64.5031 81.6806 63.3099 83.043 63.3099 85.4133V88.1088C63.3099 90.1833 65.6504 91.9608 69.5773 92.376C70.0198 92.4041 70.4599 92.4356 70.9012 92.4356H75.6683C75.8448 92.4356 76.0213 92.4356 76.1542 92.4637C77.611 92.5818 78.2277 92.8496 78.6701 93.3817C78.9349 93.6483 79.0221 93.9161 79.0221 94.2108V96.9075C79.0221 97.2326 78.802 97.6477 78.3607 98.0032C77.9641 98.3587 77.3016 98.5961 76.419 98.6557L75.933 98.685H63.2664V101.765ZM112.29 96.4035C112.29 99.5726 114.629 101.35 119.35 101.707C119.792 101.736 120.233 101.765 120.674 101.765H132.635V98.685H120.587C117.895 98.685 116.88 98.0032 116.88 96.3731V80.4341H112.291V96.4035H112.29ZM86.5854 96.5632V85.5776C86.5854 82.7876 88.5316 81.0945 92.3791 80.5601C92.7769 80.5005 93.2204 80.4712 93.617 80.4712H102.33C102.772 80.4712 103.17 80.5005 103.611 80.5601C107.459 81.0945 109.406 82.7865 109.406 85.5776V96.5632C109.406 98.829 108.579 100.039 106.675 100.829L111.197 104.939H105.867L102.209 101.613L98.527 101.848H93.617C92.7769 101.848 91.8932 101.73 90.9201 101.463C88.0009 100.662 86.5854 99.117 86.5854 96.5632ZM91.539 96.2966C91.539 96.4451 91.5826 96.5947 91.6273 96.7724C91.892 98.0493 93.0874 98.7615 94.8995 98.7615H99.0689L95.2391 95.2796H100.569L103.909 98.3171C104.525 97.9852 104.93 97.4812 105.072 96.8321C105.115 96.6836 105.115 96.5351 105.115 96.3866V85.8476C105.115 85.7295 105.115 85.5798 105.072 85.4313C104.806 84.2433 103.611 83.5616 101.843 83.5616H94.8984C92.8651 83.5616 91.5379 84.4526 91.5379 85.8476V96.2966H91.539Z" fill="#E48E00"/>
<path d="M136.672 75.3208C133.851 75.2432 131.696 75.5076 129.853 76.2894C129.329 76.5122 128.494 76.5178 128.41 77.1782C128.697 77.483 128.741 77.9364 128.97 78.3099C129.411 79.0266 130.153 79.9873 130.816 80.4902C131.539 81.0403 132.285 81.6298 133.063 82.1068C134.442 82.955 135.984 83.4388 137.315 84.287C138.098 84.7888 138.875 85.4188 139.641 85.9847C140.019 86.2625 140.272 86.6979 140.765 86.8723V86.7924C140.506 86.4617 140.439 86.0072 140.203 85.6607L139.159 84.6099C138.139 83.2464 136.845 82.0506 135.468 81.056C134.371 80.2629 131.915 79.1908 131.457 77.9049L131.377 77.8251C132.154 77.7362 133.066 77.4527 133.783 77.2592C134.99 76.9329 136.068 77.0173 137.314 76.6933L138.998 76.2073V75.8856C138.369 75.2353 137.919 74.3735 137.233 73.7852C135.438 72.245 133.476 70.706 131.457 69.4213C130.338 68.7103 128.954 68.2479 127.766 67.6449C127.368 67.4413 126.667 67.3367 126.402 66.9981C125.777 66.1982 125.439 65.1845 124.957 64.2519C123.952 62.3 122.962 60.167 122.069 58.1117C121.462 56.711 121.064 55.3295 120.305 54.0729C116.662 48.0418 112.741 44.4013 106.667 40.8238C105.374 40.0622 103.818 39.7629 102.175 39.3703L99.5269 39.2083C98.9895 38.9822 98.4287 38.3184 97.9226 37.9967C95.9094 36.7164 90.748 33.9321 89.2577 37.5939C88.317 39.9047 90.6653 42.1592 91.5043 43.3303C92.0931 44.1516 92.8483 45.0718 93.2695 45.9954C93.5466 46.6029 93.5935 47.2115 93.8314 47.8539C94.4135 49.4357 94.9218 51.158 95.6759 52.6194C96.0569 53.3597 96.4781 54.1393 96.9596 54.8008C97.2545 55.2058 97.7617 55.3858 97.841 56.0124C97.3461 56.7099 97.3171 57.7944 97.0389 58.6776C95.7854 62.6589 96.258 67.6078 98.0823 70.5542C98.6421 71.4598 99.9603 73.3993 101.772 72.6545C103.358 72.0043 103.005 69.9894 103.458 68.2108C103.561 67.8092 103.497 67.5122 103.698 67.2422V67.3232L105.143 70.2313C106.212 71.9649 108.108 73.775 109.716 74.9979C110.549 75.6313 111.206 76.7282 112.283 77.0983V77.0162H112.204C111.994 76.6888 111.668 76.5538 111.4 76.2894C110.772 75.6696 110.074 74.9 109.556 74.189C108.093 72.191 106.802 70.0029 105.624 67.7259C105.063 66.6392 104.574 65.4399 104.101 64.3329C103.917 63.9066 103.92 63.2608 103.54 63.0414C103.019 63.8514 102.256 64.5073 101.854 65.4647C101.213 66.9947 101.13 68.861 100.892 70.796L100.731 70.8759C99.6129 70.6048 99.2208 69.446 98.8052 68.4527C97.755 65.9405 97.5595 61.8939 98.4845 59.0015C98.7236 58.2523 99.8039 55.8954 99.366 55.2036C99.1571 54.5139 98.4678 54.1157 98.0835 53.5869C97.6064 52.9355 97.1294 52.0783 96.7998 51.3246C95.9396 49.3659 95.5385 47.1666 94.6347 45.1854C94.2012 44.2382 93.4706 43.2808 92.8695 42.4393C92.2048 41.5056 91.4597 40.8193 90.9435 39.6921C90.7603 39.2916 90.5112 38.6492 90.7826 38.2374C90.8687 37.9596 90.9927 37.8437 91.2653 37.7526C91.73 37.3914 93.026 37.8729 93.5108 38.0754C94.7978 38.6143 95.8714 39.1262 96.9618 39.8529C97.4847 40.2028 98.0131 40.8778 98.6465 41.0646H99.3682C100.498 41.3256 101.763 41.1444 102.818 41.4673C104.684 42.0388 106.355 42.9264 107.872 43.8917C112.496 46.8324 116.276 51.0174 118.863 56.0102C119.279 56.8145 119.46 57.5807 119.825 58.4334C120.565 60.1524 121.496 61.922 122.231 63.6039C122.965 65.2813 123.682 66.9744 124.719 68.3705C125.265 69.104 127.372 69.4978 128.329 69.905C129.001 70.1908 130.1 70.4889 130.736 70.8737C131.95 71.6117 133.127 72.4903 134.266 73.298C134.834 73.7053 136.585 74.5907 136.672 75.3208ZM100.812 44.5419C100.224 44.5307 99.8073 44.6072 99.3671 44.7039V44.7838H99.4476C99.728 45.3654 100.223 45.7389 100.57 46.2384L101.374 47.9349L101.453 47.855C101.95 47.5029 102.177 46.9393 102.175 46.0776C101.975 45.8661 101.946 45.6017 101.774 45.3508C101.546 45.0133 101.101 44.8243 100.812 44.5419Z" fill="#00618A"/>
</svg>
