<svg width="127" height="128" viewBox="0 0 127 128" fill="none" xmlns="http://www.w3.org/2000/svg">
<path d="M54.9543 66.4688H63.2222L58.8496 59.3788L50.8248 72.1978H47.1726L56.9337 56.7998C57.3584 56.1778 58.0648 55.8018 58.8496 55.8018C59.6086 55.8018 60.3161 56.1648 60.7268 56.7738L70.5257 72.1978H66.8734L65.151 69.3328H56.7789L54.9543 66.4688ZM92.8906 69.3328V55.9578H89.792V70.6428C89.792 71.0448 89.9468 71.4338 90.2424 71.7318C90.5381 72.0298 90.937 72.1978 91.3745 72.1978H105.507L107.334 69.3328H92.8906ZM41.6173 66.9358C44.6266 66.9358 47.0704 64.4868 47.0704 61.4538C47.0704 58.4208 44.6276 55.9578 41.6173 55.9578H28.0591V72.1988H31.1577V58.8218H41.4119C42.8526 58.8218 44.0095 60.0018 44.0095 61.4528C44.0095 62.9038 42.8516 64.0838 41.4119 64.0838L32.6747 64.0708L41.9259 72.1978H46.4284L40.2034 66.9348H41.6173V66.9358ZM8.98823 72.1978C4.54026 72.1978 0.929688 68.5688 0.929688 64.0838C0.929688 59.5988 4.53926 55.9568 8.98823 55.9568H18.3535C22.8035 55.9568 26.411 59.5998 26.411 64.0838C26.411 68.5678 22.8035 72.1978 18.3535 72.1978H8.98823ZM18.1451 69.3328C21.0274 69.3328 23.3621 66.9868 23.3621 64.0838C23.3621 61.1808 21.0274 58.8208 18.1451 58.8208H9.19461C6.31528 58.8208 3.97967 61.1798 3.97967 64.0838C3.97967 66.9868 6.31528 69.3328 9.19461 69.3328H18.1451ZM76.9957 72.1978C72.5468 72.1978 68.9332 68.5688 68.9332 64.0838C68.9332 59.5988 72.5468 55.9568 76.9957 55.9568H88.1201L86.3054 58.8208H77.2021C74.3208 58.8208 71.9792 61.1798 71.9792 64.0838C71.9792 66.9868 74.3208 69.3328 77.2021 69.3328H88.3771L86.5515 72.1978H76.9957ZM114.894 69.3328C112.516 69.3328 110.496 67.7258 109.879 65.5088H123.125L124.95 62.6448H109.879C110.496 60.4418 112.516 58.8208 114.894 58.8208H123.986L125.825 55.9568H114.688C110.239 55.9568 106.625 59.5998 106.625 64.0838C106.625 68.5678 110.239 72.1978 114.688 72.1978H124.244L126.07 69.3328H114.894Z" fill="#EA1B22"/>
</svg>
