<svg width="137" height="121" viewBox="0 0 137 121" fill="none" xmlns="http://www.w3.org/2000/svg">
<path d="M14.3402 101.566H8.37621V96.0819H14.6757C16.9803 96.0819 18.1352 97.0087 18.1352 98.8662C18.1352 100.666 16.8741 101.566 14.3517 101.566H14.3402ZM18.6461 96.0304C17.8267 95.361 16.682 95.0264 15.2096 95.0264L6.65155 95.0701V108.2H8.37621L8.36085 102.616H14.7281C16.3248 102.616 17.5834 102.281 18.4989 101.612C19.4143 100.942 19.8753 100.016 19.8753 98.8276C19.8753 97.6395 19.4655 96.7126 18.6461 96.0433V96.0304ZM29.8071 105.422C29.6361 105.86 29.354 106.244 28.989 106.538C28.2169 107.225 27.0389 107.568 25.4551 107.568C24.0237 107.568 22.9251 107.233 22.1594 106.564C21.3938 105.894 21.0097 105.001 21.0097 103.88C21.0097 103.297 21.1095 102.778 21.3106 102.326C21.5068 101.881 21.8052 101.488 22.1812 101.181C22.975 100.522 24.0634 100.192 25.4551 100.192C28.5331 100.192 30.0721 101.421 30.0721 103.879C30.0721 104.463 29.9825 104.975 29.8097 105.418L29.8071 105.422ZM30.1221 100.578C29.0722 99.7029 27.5152 99.2652 25.4551 99.2652C23.509 99.2652 22.0032 99.7119 20.9431 100.604C19.9854 101.412 19.5065 102.503 19.5065 103.874C19.5065 105.244 20.0007 106.336 20.9917 107.173C21.552 107.631 22.2027 107.965 22.9008 108.152C23.6267 108.354 24.4795 108.455 25.4577 108.455C27.5063 108.455 29.0683 108.022 30.14 107.157C31.0977 106.368 31.5766 105.273 31.5766 103.872C31.5766 102.463 31.0926 101.362 30.1234 100.573L30.1221 100.578ZM43.164 105.801C43.164 107.567 41.4303 108.448 37.9618 108.448C36.9017 108.448 36.0092 108.387 35.2833 108.264C34.5573 108.142 33.9683 107.937 33.5164 107.654C33.1668 107.438 32.8762 107.156 32.6841 106.808C32.4669 106.402 32.3307 105.957 32.2834 105.498L33.8966 105.485C33.8966 106.18 34.1783 106.691 34.7442 107.021C35.3499 107.416 36.4241 107.613 37.9644 107.613C40.3881 107.613 41.6006 107.059 41.6006 105.94C41.6006 105.292 41.1948 104.845 40.3817 104.601C40.2153 104.553 39.2371 104.43 37.4407 104.215L34.0836 103.674C33.1271 103.326 32.6495 102.702 32.6495 101.8C32.6495 100.917 33.0772 100.259 33.9325 99.8278C34.355 99.6475 34.8825 99.5111 35.5163 99.412C36.1501 99.3129 36.8837 99.2639 37.7185 99.2639C41.0565 99.2639 42.712 100.219 42.712 102.131H41.1756C41.1756 100.788 40.0027 100.116 37.6545 100.116C36.4612 100.116 35.5701 100.253 34.9837 100.524C34.3973 100.796 34.104 101.214 34.104 101.778C34.104 102.293 34.4882 102.684 35.2922 102.918C35.7557 103.041 36.821 103.182 38.488 103.341C39.981 103.463 41.004 103.637 41.5609 103.862C42.6211 104.238 43.1512 104.876 43.1512 105.777L43.164 105.801ZM49.4993 108.192L48.8424 108.276L48.4327 108.304C47.3828 108.304 46.6248 108.165 46.16 107.887C45.6953 107.609 45.4635 107.123 45.4635 106.426V100.44H43.5494V99.56H45.4482L45.4635 96.732H46.936V99.56H49.4967V100.455L46.936 100.442V106.265C46.936 106.699 47.0614 106.999 47.3149 107.164C47.5685 107.328 48.0191 107.411 48.6657 107.411C48.7579 107.42 48.8616 107.417 48.973 107.402C49.0844 107.386 49.2547 107.35 49.4826 107.296L49.498 108.195L49.4993 108.192ZM59.6744 106.207C59.2591 106.515 58.7944 106.748 58.3006 106.897C57.7858 107.057 57.1943 107.137 56.526 107.137C53.4492 107.137 51.9115 105.978 51.9115 103.661C51.9115 102.582 52.3046 101.737 53.092 101.128C53.8794 100.519 54.9869 100.227 56.4171 100.227C57.8575 100.227 58.9523 100.536 59.6949 101.148C60.4375 101.761 60.8139 102.586 60.8139 103.62C60.8139 104.746 60.4337 105.615 59.6718 106.224L59.6744 106.207ZM62.2838 99.5819H60.8178L60.8024 101.062C60.1545 100.461 59.691 100.081 59.4132 99.9217C58.5899 99.5098 57.5247 99.3038 56.2174 99.3038C54.3019 99.3038 52.841 99.69 51.8321 100.501C50.8744 101.235 50.3955 102.294 50.3955 103.683C50.3955 104.368 50.5172 104.981 50.7592 105.52C50.9982 106.056 51.3613 106.526 51.818 106.892C52.8423 107.662 54.2559 108.047 56.1022 108.047C58.3172 108.047 59.8921 107.493 60.819 106.373V107.918C60.819 108.896 60.481 109.651 59.7948 110.186C59.1085 110.722 58.0112 110.989 56.4658 110.989C55.0138 110.989 53.9793 110.807 53.3621 110.442C52.8987 110.162 52.5939 109.675 52.4044 108.984H50.891C51.0575 109.949 51.5056 110.65 52.2354 111.082C53.0805 111.579 54.5055 111.829 56.5144 111.829C60.3556 111.829 62.2761 110.526 62.2761 107.921V99.5536L62.2838 99.5819ZM70.2439 100.451C69.8354 100.388 69.4228 100.355 69.0096 100.353C66.5923 100.353 65.3836 101.563 65.3836 103.983V108.19H63.9291L63.9137 99.5819L65.3861 99.5948V101.13H65.463C65.6875 100.551 66.101 100.066 66.6358 99.7544C67.2222 99.4519 68.0954 99.3 69.2606 99.3H70.2464V100.452L70.2439 100.451ZM71.6113 103.326C71.797 102.348 72.2131 101.591 72.861 101.054C73.2835 100.746 73.7611 100.511 74.295 100.356C74.8289 100.2 75.432 100.124 76.0875 100.124C77.3935 100.124 78.4613 100.451 79.2884 101.105C80.1156 101.759 80.5304 102.499 80.5304 103.328H71.5934L71.6113 103.326ZM80.6738 100.672C80.1591 100.201 79.5215 99.8522 78.7584 99.6269C77.9953 99.4017 77.0939 99.2871 76.0862 99.2871C74.1657 99.2871 72.7022 99.6913 71.651 100.5C70.5998 101.308 70.0762 102.407 70.0762 103.799C70.0762 105.19 70.5806 106.294 71.5896 107.111C72.6804 108.012 74.2207 108.463 76.2079 108.463C77.0017 108.463 77.7341 108.38 78.4101 108.205C79.0861 108.03 79.6738 107.81 80.177 107.51C81.063 106.931 81.6238 106.214 81.8607 105.363H80.2705C79.7251 106.834 78.3666 107.57 76.1951 107.57C74.6612 107.57 73.4807 107.21 72.6612 106.489C71.9506 105.871 71.596 105.073 71.596 104.091H82.095C82.095 102.631 81.6264 101.486 80.6892 100.657L80.6738 100.672Z" fill="#231F20"/>
<path d="M97.6387 104.658C97.6387 107.214 95.3801 108.492 90.8604 108.492C88.1524 108.492 86.1768 108.052 84.9323 107.171C83.9131 106.448 83.4035 105.343 83.4035 103.86H85.2216C85.2216 106.246 87.0999 107.439 90.8591 107.439C92.6606 107.439 93.964 107.181 94.7681 106.705C95.4467 106.274 95.7873 105.598 95.7873 104.678C95.7873 103.768 95.3238 103.129 94.3968 102.764C93.8846 102.567 92.5889 102.318 90.5505 102.017C87.986 101.66 86.3253 101.304 85.5609 100.949C84.4598 100.423 83.8964 99.5326 83.8964 98.2737C83.8964 97.1152 84.3651 96.2141 85.3023 95.6554C86.3112 95.0273 88.0423 94.7119 90.4929 94.7119C94.923 94.7119 97.1355 96.0532 97.1355 98.7371H95.3007C95.3007 96.7264 93.6567 95.7224 90.3687 95.7224C88.7196 95.7224 87.5135 95.9245 86.7504 96.3274C86.0283 96.7599 85.6685 97.3932 85.6685 98.2299C85.6685 99.1052 86.132 99.7193 87.059 100.076C87.5532 100.282 89.0051 100.569 91.4148 100.936C93.6811 101.245 95.2098 101.608 96.0037 102.021C97.0856 102.528 97.6259 103.407 97.6259 104.657L97.6387 104.658ZM112.414 105.962C111.717 106.467 110.938 106.846 110.111 107.081C109.256 107.329 108.297 107.467 107.235 107.467C105.058 107.467 103.321 106.935 101.986 105.871C100.65 104.806 99.9971 103.374 99.9971 101.601C99.9971 99.754 100.659 98.3149 101.982 97.2825C103.304 96.2502 105.061 95.7353 107.247 95.7353C109.462 95.7353 111.206 96.2759 112.473 97.3533C113.107 97.8407 113.616 98.4725 113.958 99.1966C114.291 99.9007 114.437 100.703 114.437 101.604C114.437 103.442 113.768 104.895 112.427 105.964L112.414 105.962ZM113.394 106.834C114.341 106.224 115.043 105.485 115.496 104.617C115.949 103.75 116.177 102.747 116.177 101.611C116.177 99.5751 115.435 97.9429 113.952 96.7123C113.158 96.0365 112.2 95.5345 111.079 95.2062C109.957 94.878 108.672 94.7132 107.233 94.7132C104.431 94.7132 102.233 95.3311 100.636 96.572C99.0394 97.8129 98.2417 99.4901 98.2417 101.611C98.217 102.578 98.4236 103.536 98.844 104.406C99.2645 105.276 99.8865 106.031 100.658 106.609C102.267 107.875 104.471 108.508 107.261 108.508C108.216 108.519 109.171 108.451 110.116 108.306C110.928 108.171 111.619 107.965 112.186 107.686L114.875 109.385L115.997 108.445L113.395 106.836L113.394 106.834ZM129.788 108.173H117.359V95.0427L119.067 95.0144V107.076H129.803L129.788 108.173Z" fill="#367FAF"/>
<path d="M86.4841 63.9178C86.9732 59.818 86.8272 59.2168 89.8643 59.881L90.6351 59.9493C92.9705 60.0561 96.0126 59.5721 97.8205 58.7328C101.685 56.9307 103.975 53.9212 100.166 54.7115C91.4763 56.5136 90.8783 53.5556 90.8783 53.5556C100.055 39.8671 103.891 22.4895 100.58 18.2339C91.548 6.63203 75.9159 12.1195 75.6534 12.2611L75.5702 12.2766C73.8519 11.9187 71.9314 11.705 69.7726 11.669C65.8419 11.6046 62.8561 12.7052 60.5924 14.4314C60.5924 14.4314 32.7058 2.87975 34.0016 28.9591C34.2781 34.4942 41.9117 70.9384 51.0152 59.9338C54.3441 55.9099 57.5579 52.5065 57.5579 52.5065C59.1545 53.5749 61.0661 54.1155 63.0712 53.9224L63.2248 53.7899C63.1762 54.2893 63.1992 54.7785 63.2863 55.3564C60.9406 57.9914 61.6307 58.4535 56.9407 59.4241C52.197 60.4075 54.9843 62.1569 56.8037 62.6138C59.0098 63.1674 64.1147 63.9526 67.5614 59.0997L67.4244 59.6532C68.3463 60.3934 68.2823 64.9721 68.4129 68.2429C68.5435 71.5138 68.7611 74.5671 69.4372 76.3679C70.1132 78.1688 70.884 82.8041 77.0465 81.4757C82.1974 80.3661 86.1345 78.7686 86.4956 63.9127" fill="#231F20"/>
<path d="M86.4841 63.9178C86.9732 59.818 86.8272 59.2168 89.8643 59.881L90.6351 59.9493C92.9705 60.0561 96.0126 59.5721 97.8205 58.7328C101.685 56.9307 103.975 53.9212 100.166 54.7115C91.4763 56.5136 90.8783 53.5556 90.8783 53.5556C100.055 39.8671 103.891 22.4895 100.58 18.2339C91.548 6.63203 75.9159 12.1195 75.6534 12.2611L75.5702 12.2766C73.8519 11.9187 71.9314 11.705 69.7726 11.669C65.8419 11.6046 62.8561 12.7052 60.5924 14.4314C60.5924 14.4314 32.7058 2.87975 34.0016 28.9591C34.2781 34.4942 41.9117 70.9384 51.0152 59.9338C54.3441 55.9099 57.5579 52.5065 57.5579 52.5065C59.1545 53.5749 61.0661 54.1155 63.0712 53.9224L63.2248 53.7899C63.1762 54.2893 63.1992 54.7785 63.2863 55.3564C60.9406 57.9914 61.6307 58.4535 56.9407 59.4241C52.197 60.4075 54.9843 62.1569 56.8037 62.6138C59.0098 63.1674 64.1147 63.9526 67.5614 59.0997L67.4244 59.6532C68.3463 60.3934 68.2823 64.9721 68.4129 68.2429C68.5435 71.5138 68.7611 74.5671 69.4372 76.3679C70.1132 78.1688 70.884 82.8041 77.0465 81.4757C82.1974 80.3661 86.1345 78.7686 86.4956 63.9127" stroke="#231F20" stroke-width="5.046"/>
<path d="M100.167 54.7115C91.4763 56.5137 90.8784 53.5556 90.8784 53.5556C100.055 39.8659 103.891 22.4882 100.581 18.2339C91.5493 6.63334 75.9159 12.1195 75.6547 12.2611L75.5702 12.2766C73.852 11.9187 71.9314 11.705 69.7701 11.669C65.8394 11.6046 62.8561 12.7052 60.5898 14.4314C60.5898 14.4314 32.7008 2.88105 33.9965 28.9591C34.2718 34.4942 41.9054 70.9384 51.0101 59.9351C54.3391 55.9112 57.54 52.5078 57.54 52.5078C59.1366 53.5762 61.0482 54.1168 63.0533 53.9237L63.2095 53.7912C63.1608 54.2906 63.1839 54.7798 63.2735 55.3577C60.9279 57.9927 61.6167 58.4548 56.928 59.4254C52.1829 60.4088 54.969 62.1582 56.7897 62.6152C58.9958 63.1687 64.1006 63.9539 67.5474 59.101L67.4104 59.6545C68.3297 60.3947 68.975 64.4688 68.8662 68.1606C68.7574 71.8523 68.6869 74.3882 69.4103 76.3692C70.1338 78.3503 70.8572 82.8054 77.0209 81.477C82.1718 80.3674 84.8401 77.4917 85.2114 72.6955C85.4752 69.2843 86.0693 69.7889 86.1077 66.7407L86.5866 65.299C87.1371 60.6779 86.6736 59.1847 89.8477 59.8798L90.6185 59.948C92.9539 60.0548 96.0088 59.5708 97.8052 58.7316C101.668 56.9294 103.96 53.9199 100.151 54.7102L100.167 54.7115Z" fill="#417BA2"/>
<path d="M75.624 12.1475C74.6573 12.4526 91.1485 6.08721 100.52 18.1254C103.829 22.3784 100.007 39.7561 90.8169 53.4471M67.9366 57.3616C67.6972 65.9629 67.9968 74.6105 68.8329 76.7293C69.669 78.8481 71.4628 82.9286 77.629 81.6015C82.7787 80.4919 84.6532 78.3448 85.4649 73.6026C86.0641 70.1271 87.219 60.4265 87.3663 58.4416L67.9366 57.3616ZM60.5617 14.2405C60.5617 14.2405 32.6533 2.78417 33.9516 28.8507C34.2282 34.3858 41.8618 70.8312 50.9806 59.8267C54.3096 55.8028 57.3185 52.6465 57.3185 52.6465L60.5617 14.2405Z" stroke="white" stroke-width="1.682" stroke-linecap="round" stroke-linejoin="round"/>
<path d="M90.8169 53.4458C90.8169 53.4458 91.4148 56.4064 100.106 54.6017C103.914 53.8114 101.622 56.8209 97.7604 58.6243C94.5902 60.1047 87.4841 60.4818 87.3676 58.439C87.068 53.1665 91.1063 54.7678 90.8169 53.4471C90.5531 52.2577 88.7465 51.0889 87.5519 48.1772C86.5084 45.6349 73.2463 26.1397 91.2305 29.036C91.8898 28.8995 86.5404 11.8385 69.7099 11.5618C52.8794 11.285 53.4492 32.3661 53.4492 32.3661" stroke="white" stroke-width="1.682" stroke-linecap="round" stroke-linejoin="bevel"/>
<path d="M63.2287 55.2503C60.8831 57.8853 61.5732 58.3474 56.8832 59.318C52.1394 60.3014 54.9268 62.0507 56.7449 62.5077C58.951 63.0612 64.0558 63.849 67.5026 58.9936C68.5525 57.5158 67.4962 55.1576 66.0558 54.5552C65.3593 54.2656 64.4272 53.9013 63.2287 55.2503Z" stroke="white" stroke-width="1.682" stroke-linejoin="round"/>
<path d="M63.0738 55.2041C62.8382 53.6556 63.5808 51.8123 64.3759 49.6562C65.5718 46.4213 68.3322 43.1839 66.1236 32.9221C64.4783 25.2734 53.4428 31.3298 53.4351 32.3686C53.4274 33.4074 53.9472 37.6257 53.2507 42.5378C52.3583 48.9482 57.3095 54.3726 63.0097 53.8178" stroke="white" stroke-width="1.682" stroke-linecap="round" stroke-linejoin="round"/>
<path d="M60.449 32.2106C60.3978 32.5646 61.0943 33.5108 61.9983 33.6369C62.9022 33.7631 63.6755 33.0255 63.7268 32.6715C63.778 32.3175 63.0814 31.9275 62.1775 31.8C61.2736 31.6726 60.4977 31.8579 60.449 32.2119V32.2106Z" fill="white" stroke="white" stroke-width="0.561"/>
<path d="M87.9937 31.4885C88.0424 31.8425 87.3484 32.7757 86.4445 32.9147C85.5405 33.0538 84.7672 32.3033 84.716 31.9493C84.6648 31.5953 85.3626 31.2053 86.2678 31.0779C87.173 30.9504 87.9451 31.1358 87.9963 31.4898L87.9937 31.4885Z" fill="white" stroke="white" stroke-width="0.28"/>
<path d="M91.2305 29.0361C91.3791 31.814 90.6352 33.7088 90.5417 36.6656C90.4009 40.9649 92.5801 45.8847 89.2997 50.8123" stroke="white" stroke-width="1.682" stroke-linecap="round" stroke-linejoin="round"/>
</svg>
