<svg width="97" height="106" viewBox="0 0 97 106" fill="none" xmlns="http://www.w3.org/2000/svg">
<path d="M48.5 44.0436C52.3923 44.0436 55.5477 40.8882 55.5477 36.9959C55.5477 33.1036 52.3923 29.9482 48.5 29.9482C44.6077 29.9482 41.4524 33.1036 41.4524 36.9959C41.4524 40.8882 44.6077 44.0436 48.5 44.0436Z" fill="#61DAFB"/>
<path d="M48.5 62.9132C54.0321 68.2936 59.4883 71.4765 63.8836 71.4765C65.3235 71.4765 66.6875 71.1733 67.8242 70.4913C71.7649 68.2179 73.2047 62.5343 71.8406 54.4257C71.6133 52.9858 71.3102 51.546 70.9313 50.0304C72.4469 49.5757 73.811 49.121 75.175 48.6663C82.8289 45.7108 87.0727 41.6187 87.0727 37.1476C87.0727 32.6007 82.8289 28.5085 75.175 25.6288C73.811 25.0983 72.4469 24.6437 70.9313 24.2647C71.3102 22.7491 71.6133 21.3093 71.8406 19.8694C73.1289 11.6093 71.6891 5.8499 67.7485 3.57647C66.6117 2.89443 65.2477 2.59131 63.8078 2.59131C59.4883 2.59131 53.9563 5.77412 48.4242 11.1546C42.968 5.77412 37.5117 2.59131 33.1164 2.59131C31.6766 2.59131 30.3125 2.89443 29.1758 3.57647C25.2352 5.8499 23.7953 11.5335 25.1594 19.6421C25.3867 21.0819 25.6899 22.5218 26.0688 24.0374C24.5531 24.4921 23.1891 24.9468 21.825 25.4015C14.1711 28.3569 9.92737 32.4491 9.92737 36.9202C9.92737 41.4671 14.1711 45.5593 21.825 48.439C23.1891 48.9694 24.5531 49.4241 26.0688 49.803C25.6899 51.3187 25.3867 52.7585 25.1594 54.1983C23.8711 62.3069 25.311 68.0663 29.1758 70.264C30.3125 70.946 31.6766 71.2491 33.1164 71.2491C37.5117 71.4007 42.968 68.2179 48.5 62.9132ZM44.2563 52.6827C45.6203 52.7585 47.0602 52.7585 48.5 52.7585C49.9399 52.7585 51.3797 52.7585 52.7438 52.6827C51.3797 54.5015 49.9399 56.1687 48.5 57.7601C47.0602 56.1687 45.6203 54.5015 44.2563 52.6827ZM34.8594 44.8772C35.6172 46.1655 36.2992 47.378 37.1328 48.5905C34.7836 48.2874 32.586 47.9085 30.4641 47.4538C31.1461 45.4077 31.9039 43.2858 32.8133 41.164C33.4196 42.3765 34.1016 43.6647 34.8594 44.8772ZM30.4641 26.614C32.586 26.1593 34.7836 25.7804 37.1328 25.4772C36.375 26.6897 35.6172 27.9022 34.8594 29.1905C34.1016 30.4788 33.4196 31.6913 32.8133 32.9796C31.8281 30.7819 31.0703 28.6601 30.4641 26.614ZM34.6321 36.996C35.6172 34.9499 36.6781 32.9038 37.8906 30.8577C39.0274 28.8874 40.3156 26.9171 41.6039 24.9468C43.8774 24.7952 46.1508 24.7194 48.5 24.7194C50.925 24.7194 53.1985 24.7952 55.3961 24.9468C56.7602 26.9171 57.9727 28.8874 59.1094 30.8577C60.3219 32.9038 61.3828 34.9499 62.368 36.996C61.3828 39.0421 60.3219 41.0882 59.1094 43.1343C57.9727 45.1046 56.6844 47.0749 55.3961 49.0452C53.1227 49.1968 50.8492 49.2726 48.5 49.2726C46.075 49.2726 43.8016 49.1968 41.6039 49.0452C40.2399 47.0749 39.0274 45.1046 37.8906 43.1343C36.6781 41.0882 35.6172 39.0421 34.6321 36.996ZM64.2625 32.9038L62.2164 29.1147C61.4586 27.8265 60.7766 26.614 59.943 25.4015C62.2922 25.7046 64.4899 26.0835 66.6117 26.5382C65.9297 28.6601 65.1719 30.7819 64.2625 32.9038ZM64.2625 41.0882C65.1719 43.2101 65.9297 45.3319 66.6117 47.378C64.4899 47.8327 62.2922 48.2116 59.943 48.5147C60.7008 47.3022 61.4586 46.0897 62.2164 44.8015C62.8985 43.6647 63.5805 42.3765 64.2625 41.0882ZM66.0055 67.3843C65.3992 67.7632 64.6414 67.9147 63.8078 67.9147C60.0946 67.9147 55.4719 64.8835 50.925 60.3366C53.1227 57.9874 55.2446 55.3351 57.3664 52.3796C60.9281 52.0765 64.3383 51.546 67.5211 50.7882C67.9 52.1522 68.1274 53.5163 68.3547 54.8804C69.4156 61.3218 68.5821 65.9444 66.0055 67.3843ZM69.9461 27.4476C78.4336 29.8726 83.511 33.5858 83.511 36.996C83.511 39.9515 80.025 42.9069 73.8867 45.2562C72.6742 45.7108 71.3102 46.1655 69.9461 46.5444C68.961 43.4374 67.7485 40.2546 66.2328 36.996C67.7485 33.7374 69.0367 30.5546 69.9461 27.4476ZM63.8836 6.07725C64.7172 6.07725 65.3992 6.22881 66.0813 6.60772C68.5821 8.04756 69.4914 12.5944 68.4305 19.1116C68.2031 20.3999 67.9 21.764 67.5969 23.2038C64.4141 22.5218 61.0039 21.9913 57.4422 21.6124C55.3961 18.6569 53.1985 16.0046 51.0008 13.6554C55.5477 9.18428 60.1703 6.07725 63.8836 6.07725ZM52.7438 21.3093C51.3797 21.2335 49.9399 21.2335 48.5 21.2335C47.0602 21.2335 45.6203 21.2335 44.2563 21.3093C45.6203 19.4905 47.0602 17.8233 48.5 16.2319C49.9399 17.8233 51.3797 19.5663 52.7438 21.3093ZM30.9946 6.60772C31.6008 6.22881 32.3586 6.07725 33.1922 6.07725C36.9055 6.07725 41.5281 9.1085 46.075 13.6554C43.8774 16.0046 41.7555 18.6569 39.6336 21.6124C36.0719 21.9155 32.6617 22.446 29.4789 23.2038C29.1 21.8397 28.8727 20.4757 28.6453 19.1116C27.5844 12.6702 28.418 8.12334 30.9946 6.60772ZM27.0539 46.5444C18.5664 44.1194 13.4891 40.4062 13.4891 36.996C13.4891 34.0405 16.975 31.0851 23.1133 28.7358C24.3258 28.2812 25.6899 27.8265 27.0539 27.4476C28.0391 30.5546 29.2516 33.7374 30.7672 36.996C29.2516 40.2546 27.9633 43.5132 27.0539 46.5444ZM28.6453 54.8804C28.8727 53.5921 29.1758 52.228 29.4789 50.7882C32.6617 51.4702 36.0719 52.0007 39.6336 52.3796C41.6797 55.3351 43.8774 57.9874 46.075 60.3366C41.5281 64.8077 36.9055 67.9147 33.1922 67.9147C32.3586 67.9147 31.6766 67.7632 30.9946 67.3843C28.418 65.9444 27.5844 61.3218 28.6453 54.8804ZM25.4625 86.1022C27.1297 84.0562 27.2055 81.7827 26.2961 79.5093C25.3867 77.2358 23.4922 76.1749 21.143 76.0991C18.3391 76.0233 15.4594 76.0991 12.6555 76.0991H12.125V95.7265H14.3985V88.2999H17.9602C18.4149 88.2999 18.7938 88.4515 19.0211 88.8304L23.568 95.878C23.6438 96.0296 23.8711 96.2569 24.0227 96.2569H26.9781C25.1594 93.453 23.4164 90.8007 21.5977 88.0726C23.1891 87.8452 24.5531 87.3148 25.4625 86.1022ZM14.3985 85.9507V78.4483H15.2321C16.975 78.4483 18.7938 78.3726 20.5367 78.5241C22.5828 78.5999 24.0227 80.1913 24.0227 82.2374C24.0227 84.2835 22.3555 85.8749 20.3094 85.9507C18.4906 86.0265 16.6719 85.9507 14.3985 85.9507ZM43.7258 86.9358C42.5133 81.6312 37.6633 80.2671 33.95 81.9343C31.0703 83.2226 29.7821 85.7233 29.7063 88.8304C29.6305 91.1796 30.3125 93.3015 32.1313 94.8929C34.1774 96.7116 36.6781 96.939 39.2547 96.4843C40.6946 96.1812 41.9828 95.4991 42.968 94.4382C42.5891 93.9077 42.2102 93.3773 41.8313 92.9226C39.7094 94.7413 37.3602 95.3476 34.7836 94.1351C33.1164 93.3015 32.2828 91.2554 32.1313 89.7397H43.8774V88.7546C43.9531 88.0726 43.8774 87.4663 43.7258 86.9358ZM32.2828 88.1483C32.0555 85.8749 34.3289 83.4499 36.8297 83.4499C39.7094 83.3741 41.5281 85.1171 41.6039 88.1483H32.2828ZM55.5477 81.5554C54.411 81.328 53.1985 81.2523 52.0617 81.328C50.243 81.4796 48.6516 82.3132 47.3633 83.6772C47.7422 84.2077 48.0453 84.7382 48.5 85.3444C48.6516 85.1929 48.8031 85.0413 48.9547 84.9655C50.1672 83.8288 51.6071 83.2226 53.35 83.3741C54.7141 83.4499 56.0024 83.9046 56.3813 85.2687C56.6844 86.3296 56.6086 87.4663 56.6844 88.603C56.4571 88.603 56.3813 88.5273 56.3055 88.4515C54.4867 86.9358 52.4407 86.6327 50.243 87.1632C48.1969 87.6936 46.9086 89.2851 46.7571 91.3312C46.6055 93.6804 47.6664 95.4233 49.7125 96.2569C51.0008 96.7874 52.4406 96.7874 53.8047 96.4843C54.8656 96.2569 55.3203 95.6507 56.836 94.8171V95.8022H58.9578C58.9578 92.771 59.0336 89.0577 58.9578 85.5718C58.9578 83.3741 57.6696 82.0101 55.5477 81.5554ZM56.6086 91.1038C56.5328 91.3312 56.6086 91.5585 56.6086 91.7858C56.6086 93.3773 56.2297 93.9077 54.7141 94.514C53.6531 94.8929 52.5164 95.0444 51.3797 94.6655C50.0914 94.2866 49.1821 93.1499 49.1821 91.8616C49.1063 90.5733 49.9399 89.2851 51.2281 88.9062C52.9711 88.2999 54.5625 88.6788 56.0024 89.7397C56.4571 90.1187 56.7602 90.4976 56.6086 91.1038ZM68.4305 83.6015C70.4008 82.9952 72.2196 83.3741 73.5836 85.0413L73.811 85.1929C74.3414 84.7382 74.7961 84.2835 75.4024 83.753C75.175 83.5257 75.0992 83.3741 74.9477 83.1468C72.75 80.7976 68.4305 80.4944 65.7781 82.389C62.0649 85.1171 62.1406 90.4218 63.9594 93.2257C65.7024 95.878 68.2031 96.7874 71.1586 96.4085C72.9016 96.1812 74.3414 95.3476 75.4781 93.9077C74.9477 93.453 74.4172 92.9983 73.8867 92.4679C73.7352 92.6194 73.6594 92.6952 73.5836 92.8468C71.5375 95.1202 68.1274 94.8929 66.3086 92.4679C65.2477 91.028 65.0203 89.3608 65.3235 87.6937C65.475 85.7991 66.4602 84.2835 68.4305 83.6015ZM84.193 93.9077C84.0414 93.9835 83.9656 94.0593 83.9656 94.0593C83.3594 94.514 82.7532 94.5897 82.0711 94.3624C81.3891 94.0593 81.3133 93.453 81.2375 92.8468V84.2077C81.2375 84.0562 81.2375 84.3593 81.3133 83.6015H84.193V81.328H81.1617V77.539H78.8883V81.6312H76.918C76.7664 81.6312 76.5391 81.7827 76.5391 81.9343C76.4633 82.4648 76.5391 82.8437 76.5391 83.6015H78.9641V93.3015C78.9641 94.514 79.2672 95.5749 80.3281 96.1812C81.4649 96.8632 83.6625 96.7116 84.6477 95.878C84.7992 95.8022 84.875 95.4991 84.875 95.4233C84.6477 94.9687 84.4203 94.4382 84.193 93.9077Z" fill="#61DAFB"/>
</svg>
