<svg width="88" height="88" viewBox="0 0 88 88" fill="none" xmlns="http://www.w3.org/2000/svg">
<path d="M33.3794 45.5174H36.4139C38.2346 45.5174 39.4484 47.0346 39.4484 48.5519H42.4828C42.4828 45.214 39.7519 42.4829 36.4139 42.4829H33.3794C30.0414 42.4829 27.3104 45.214 27.3104 48.5519C27.3104 51.8897 30.0414 54.6208 33.3794 54.6208H36.4139C38.2346 54.6208 39.4484 55.8346 39.4484 57.6553C39.4484 59.476 38.2346 60.6898 36.4139 60.6898H33.3794C31.5587 60.6898 30.3449 59.1726 30.3449 57.6553H27.3104C27.3104 60.9932 30.0414 63.7243 33.3794 63.7243H36.4139C39.7519 63.7243 42.4828 60.9932 42.4828 57.6553C42.4828 54.3175 39.7519 51.5864 36.4139 51.5864H33.3794C31.5587 51.5864 30.3449 50.3726 30.3449 48.5519C30.3449 46.7312 31.5587 45.5174 33.3794 45.5174Z" fill="black"/>
<path d="M78.8966 33.3792H57.6552V24.2758L39.4483 3.03442H6.06897C2.73096 3.03442 0 5.76538 0 9.10339V78.8965C0 82.2343 2.73096 84.9654 6.06897 84.9654H51.5862C54.9241 84.9654 57.6552 82.2343 57.6552 78.8965V72.8275H78.8966C84.0553 72.8275 88 68.8828 88 63.7241V42.4827C88 37.324 84.0553 33.3792 78.8966 33.3792ZM39.4483 7.58607L53.7104 24.2758H42.4828C40.9656 24.2758 39.4483 22.7586 39.4483 21.2413V7.58607ZM54.6207 78.8965C54.6207 80.4136 53.4069 81.931 51.5862 81.931H6.06897C4.5518 81.931 3.03448 80.7172 3.03448 78.8965V9.10339C3.03448 7.58623 4.24828 6.06891 6.06897 6.06891H36.4138V21.2413C36.4138 24.5793 39.1447 27.3103 42.4828 27.3103H54.6207V33.3792H27.3103C22.1516 33.3792 18.2069 37.324 18.2069 42.4827V63.7241C18.2069 68.8828 22.1516 72.8275 27.3103 72.8275H54.6207V78.8965ZM84.9655 63.7241C84.9655 67.0619 82.2344 69.793 78.8966 69.793H27.3103C23.9723 69.793 21.2414 67.0619 21.2414 63.7241V42.4827C21.2414 39.1447 23.9723 36.4137 27.3103 36.4137H78.8966C82.2344 36.4137 84.9655 39.1447 84.9655 42.4827V63.7241Z" fill="black"/>
<path d="M60.6896 57.6553V48.5519C60.6896 45.214 57.9585 42.4829 54.6207 42.4829H51.5862C48.2483 42.4829 45.5172 45.214 45.5172 48.5519V57.6553C45.5172 60.9932 48.2483 63.7243 51.5862 63.7243H54.6207C55.2276 63.7243 56.1378 63.7243 56.7449 63.4209L59.4758 66.1519L61.6 64.0277L59.1725 61.6001C60.0827 60.6898 60.6896 59.1726 60.6896 57.6553ZM57.6551 57.6553C57.6551 58.2622 57.3518 58.8691 57.0482 59.476L52.8001 55.2279L50.6759 57.3521L54.0138 60.69H51.5862C49.7655 60.69 48.5517 59.4762 48.5517 57.6555V48.5519C48.5517 46.7312 49.7655 45.5174 51.5862 45.5174H54.6207C56.4413 45.5174 57.6551 46.7312 57.6551 48.5519V57.6553Z" fill="black"/>
<path d="M66.7587 42.4829H63.7242V63.7243H78.8966V60.6898H66.7587V42.4829Z" fill="black"/>
</svg>
