<svg width="84" height="84" viewBox="0 0 84 84" fill="none" xmlns="http://www.w3.org/2000/svg">
<path d="M82.9041 22.3518C82.9036 20.626 82.7299 18.9046 82.3857 17.2134C82.0413 15.4822 81.4559 13.8077 80.6466 12.239C79.8008 10.7196 78.7497 9.32396 77.5228 8.09153C76.2575 6.85345 74.7878 5.84328 73.1785 5.1056C71.5903 4.30478 69.8916 3.74519 68.1385 3.44528C66.3994 3.1106 64.4897 3.1106 62.7507 2.94653H19.8516C18.5134 2.96832 17.1782 3.08014 15.855 3.28122C14.542 3.4358 13.2566 3.77149 12.0357 4.27872C11.6878 4.44278 11.1694 4.61341 10.8216 4.77747C9.66644 5.39668 8.5684 6.11699 7.54035 6.92997C7.19254 7.26466 6.84472 7.42872 6.49691 7.75684C5.21792 8.94314 4.16019 10.3475 3.37316 11.9043C2.51369 13.451 1.9255 15.1335 1.6341 16.8787C1.37549 18.5818 1.20246 20.2968 1.11566 22.0172V61.6481C1.1162 63.3739 1.28988 65.0954 1.6341 66.7865C1.97849 68.5178 2.56387 70.1922 3.37316 71.7609C4.21893 73.2803 5.27007 74.676 6.49691 75.9084C7.76226 77.1465 9.232 78.1567 10.8413 78.8943C12.4294 79.6952 14.1281 80.2547 15.8813 80.5546C17.6203 80.8893 19.53 80.8893 21.2691 81.0534H62.7572C64.5646 81.0521 66.3681 80.8851 68.145 80.5546C69.8982 80.2547 71.5969 79.6952 73.185 78.8943C74.7599 78.0974 76.221 77.0932 77.5294 75.9084C78.8084 74.7221 79.8661 73.3177 80.6532 71.7609C81.5126 70.2142 82.1008 68.5318 82.3922 66.7865C82.6508 65.0835 82.8239 63.3685 82.9107 61.6481V22.3518H82.9041Z" fill="#F05138"/>
<path d="M55.7813 63.3282C48.4904 67.351 38.4695 67.7644 28.3829 63.6366C20.5185 60.4457 13.7944 54.9653 9.08258 47.9063C11.2723 49.5825 13.6646 50.976 16.2029 52.0538C26.6176 56.7132 37.0257 56.3916 44.356 52.0538C33.9216 44.4019 25.0623 34.4532 18.4604 26.3288C17.1576 24.9558 15.9947 23.4565 14.9888 21.8532C22.9688 28.816 35.6607 37.6032 40.1757 40.0904C33.7292 33.4851 27.8052 26.3895 22.457 18.8673C31.3472 27.5067 41.1299 35.1775 51.6404 41.7507C52.1063 42.0001 52.4673 42.2101 52.756 42.4069C53.0641 41.6548 53.3292 40.8857 53.5501 40.1035C55.9848 31.6444 53.2023 22.0304 47.1254 14.0701C61.1954 22.1879 69.5626 37.4391 66.0582 50.2098C65.9663 50.5576 65.8679 50.866 65.7629 51.2269L65.8876 51.3713C72.8373 59.6598 70.9276 68.4338 70.0548 66.7932C66.2813 59.7188 59.3054 61.9041 55.7813 63.3282Z" fill="#FEFEFE"/>
</svg>
