<svg width="85" height="84" viewBox="0 0 85 84" fill="none" xmlns="http://www.w3.org/2000/svg">
<path d="M42.5 42L42.6062 41.65L51.6375 24.85L52.2396 24.5H57.8708L58.4375 24.85V25.55L49.5833 42L58.4375 58.45V59.15L57.8708 59.5H52.2396L51.6375 59.15L42.6062 42.35L42.5 42V42.35L33.3625 59.15L32.7604 59.5H27.1292L26.5625 59.15V58.45L35.4167 42L26.5625 25.55V24.85L27.1292 24.5H32.7604L33.3625 24.85L42.5 41.65V42ZM80.5729 38.745C81.1396 39.725 81.4583 40.845 81.4583 42C81.4583 43.155 81.1396 44.275 80.5729 45.255L64.0333 73.5C62.7583 75.67 60.4208 77 57.9062 77H27.0938C24.5792 77 22.2417 75.67 20.9667 73.5L4.42708 45.255C3.86042 44.275 3.54167 43.155 3.54167 42C3.54167 40.845 3.86042 39.725 4.42708 38.745L20.9667 10.5C22.2417 8.33 24.5792 7 27.0938 7H57.9062C60.4208 7 62.7583 8.33 64.0333 10.5L80.5729 38.745ZM73.6667 39.375L60.1021 16.8C59.075 15.05 57.1625 14 55.1083 14H29.8917C27.8375 14 25.925 15.05 24.8979 16.8L11.3333 39.375C10.8729 40.25 10.625 41.09 10.625 42C10.625 42.91 10.8729 43.75 11.3333 44.625L24.8979 67.2C25.925 68.95 27.8375 70 29.8917 70H55.1083C57.1625 70 59.075 68.95 60.1021 67.2L73.6667 44.625C74.1271 43.75 74.375 42.91 74.375 42C74.375 41.09 74.1271 40.25 73.6667 39.375Z" fill="black"/>
</svg>
